<?xml version="1.0" encoding="UTF-8"?>
<svg enable-background="new 0 0 1243.862 1692.539" version="1.1" viewBox="0 0 1243.862 1692.539" xmlns="http://www.w3.org/2000/svg">
 <path d="m683.18 1646.2c-60.615 0-121.23-0.01-181.84 0.027-3.165 2e-3 -5.07 0.305-5.242-4.447-0.453-12.495-1.622-24.976-3.472-37.399-0.802-5.382-0.292-11.052 0.164-16.645 0.441-5.397-1.116-10.971-1.909-16.451-0.519-3.584-1.579-7.086-1.493-10.762 0.021-0.89-0.074-1.886-0.457-2.665-1.45-2.946-2.003-5.658-2.05-9.227-0.055-4.23-0.199-8.65 0.066-12.916 0.789-12.687-1.981-25.115-2.377-37.734-0.392-12.479-1.144-24.928-1.008-37.443 0.174-16.12 1.582-32.228 0.594-48.36-0.157-2.557-0.888-4.601-3.699-5.527-2.845-0.937-4.99-2.954-6.118-5.743-2.825-6.988-7.972-12.768-10.189-20.083-3.059-10.092-11.694-17.179-14.946-27.138-1.904-5.832-5.033-10.926-8.279-15.994-5.925-9.251-12.116-18.336-17.874-27.689-7.668-12.456-15.485-24.796-22.649-37.598-7.499-13.4-15.254-26.708-22.781-40.116-12.717-22.652-23.207-46.362-32.636-70.552-6.628-17.003-13.6-33.878-19.904-50.999-4.267-11.59-7.922-23.416-11.643-35.208-3.95-12.516-7.812-25.058-11.453-37.664-7.861-27.216-15.731-54.43-23.296-81.729-2.412-8.703-5.682-17.175-7.616-25.96-2.566-11.658-8.765-22.056-10.947-33.798-1.186-6.379-3.45-12.653-3.854-19.061-0.762-12.075-5.737-22.695-10.248-33.467-10.329-24.667-22.636-48.39-35.457-71.832-8.716-15.937-19.198-30.736-30-45.331-8.074-10.91-15.69-22.164-23.376-33.356-3.585-5.221-7.489-10.199-11.014-15.476-11.687-17.498-20.167-36.773-30.854-54.812-5.218-8.808-10.328-17.678-15.641-26.435-9.467-15.606-18.706-31.359-27.516-47.367-14.188-25.782-25.068-52.961-34.187-80.815-4.881-14.912-6.227-30.493 1.572-45.069 6.453-12.06 16.533-18.948 30.712-20.402 23.065-2.366 37.756 9.447 49.682 27.082 10.625 15.712 21.642 31.16 32.199 46.916 9.977 14.891 18.63 30.614 28.066 45.839 9.765 15.757 19.269 31.769 30.852 46.288 10.131 12.699 20.86 24.985 31.832 36.922 16.17 17.591 29.147 37.104 40.592 57.899 3.505 6.368 8.521 11.886 12.598 17.959 12.734 18.97 26.612 37.136 38.492 56.731 5.97 9.847 21.482 20.874 35.635 16.65 2.952-0.881 5.046-2.622 7.145-4.364 8.751-7.26 17.232-14.847 25.968-22.127 2.546-2.122 2.35-4.764 2.294-7.387-0.713-33.397-6.537-65.996-14.55-98.362-6.38-25.77-13.188-51.432-19.409-77.233-7.538-31.263-13.588-62.814-16.991-94.893-1.99-18.758-6.207-37.274-9.253-55.927-2.338-14.313-5.461-28.46-8.84-42.545-2.425-10.107-5.438-20.071-8.145-30.111-4.213-15.624-6.782-31.587-9.631-47.487-3.446-19.23-4.305-38.767-6.601-58.135-1.53-12.908-4.134-25.633-6.596-38.382-3.39-17.554 2.226-32.438 13.646-45.544 5.09-5.841 10.972-10.678 17.794-14.487 8.477-4.733 17.723-5.341 26.717-3.916 13.957 2.211 26.519 8.096 36.289 18.801 6.602 7.233 10.239 16.116 13.365 25.197 6.255 18.172 9.225 37.107 12.85 55.895 1.657 8.591 4.184 17.02 5.708 25.63 3.82 21.573 7.283 43.209 10.908 64.816 4.299 25.622 9.695 50.98 16.758 76.018 8.425 29.867 19.968 58.598 30.56 87.689 6.382 17.53 9.823 35.859 12.61 54.255 3.754 24.783 7.392 49.579 12.371 74.157 2.515 12.416 4.374 25.021 8.516 37.008 2.088 6.043 4.999 11.933 10.457 16.152 5.461 4.221 11.201 2.596 16.783 1.266 4.161-0.992 8.067-3.086 12.052-4.773 1.605-0.68 2.617-1.868 2.839-3.756 3.908-33.203 7.7-66.353 7.625-99.93-0.066-29.748 1.859-59.5 4.004-89.204 1.075-14.887 1.396-29.828 2.139-44.74 0.839-16.824 4.676-33.183 7.68-49.682 3.167-17.395 6.972-34.668 8.966-52.293 1.459-12.898 4.149-25.657 6.292-38.478 4.403-26.34 5.943-52.849 5.307-79.547-0.696-29.227 3e-3 -58.449 1.323-87.656 0.287-6.346-0.128-12.73 1.333-18.989 3.245-13.903 12.014-23.515 24.284-29.903 19.884-10.352 44.544-7.808 62.475 10.704 11.514 11.888 17.841 26.153 19.241 42.622 1.802 21.194 3.277 42.397 5.806 63.552 2.291 19.162 2.525 38.607 1.58 57.988-1.995 40.907 1.851 81.652 3.856 122.44 0.967 19.667 2.856 39.327 1.476 58.987-1.456 20.751-2.77 41.522-5.077 62.22-1.086 9.741-1.045 19.641-1.005 29.466 0.087 21.437-2.79 42.579-5.978 63.684-4.07 26.947-7.123 53.983-8.152 81.225-0.142 3.769 0.251 7.561 0.059 11.326-0.172 3.382 2.639 2.6 4.04 2.766 3.893 0.461 7.86 0.347 11.798 0.353 6.6 0.01 13.273 0.504 19.77-0.334 3.381-0.436 7.668-0.06 9.765-5.049 7.061-16.805 13.673-33.745 18.81-51.246 8.547-29.121 19.588-57.41 28.865-86.282 8.043-25.031 15.275-50.322 23.102-75.424 3.514-11.27 9.474-21.545 14.056-32.391 12.382-29.311 27.355-57.578 36.796-88.065 6.751-21.799 13.155-43.714 20.294-65.387 6.85-20.797 13.876-41.569 21.848-61.953 6.264-16.016 10.935-32.644 18.461-48.165 7.477-15.419 19.598-23.713 36.775-26.072 16.789-2.306 29.982 3.257 40.811 15.356 9.205 10.285 12.822 23.056 14.149 36.472 1.153 11.658 0.125 23.269-1.608 34.842-1.119 7.475-1.533 15.06-2.778 22.51-3.954 23.672-7.346 47.446-13.992 70.611-3.123 10.885-5.325 22.095-9.486 32.613-5.355 13.535-5.106 28.067-8.654 41.898-5.063 19.736-9.346 39.658-14.78 59.319-2.729 9.874-5.09 19.908-8.263 29.63-3.823 11.713-7.042 23.606-11.916 35.074-2.696 6.342-4.087 13.959-5.277 21.264-4.475 27.475-12.428 54.134-20.132 80.847-4.777 16.564-10.814 32.66-16.612 48.862-6.205 17.34-10.89 35.139-15.595 52.947-4.954 18.75-4.827 37.752-4.49 56.812 0.276 15.578-1.354 31.007-2.728 46.473-0.359 4.038-0.6 8.224 0.058 12.184 1.287 7.735-1.199 14.961-2.246 22.371-0.241 1.705-0.489 3.36 0.052 4.877 3.866 10.853 5.945 22.115 6.617 33.518 0.398 6.756 3.514 12.275 5.946 18.117 3.252 7.811 6.015 15.672 7.263 24.088 0.635 4.284 1.965 8.443 1.933 12.862-9e-3 1.193 0.896 2.582 1.751 3.559 4.147 4.739 7.003 10.297 8.984 16.098 3.675 10.764 9.836 9.706 18.745 8.361 1.7-0.256 3.349-1.139 5.187-1.335 4.627-0.492 5.412-4.879 7.149-7.914 4.53-7.914 6.172-16.952 9.009-25.524 6.7-20.24 15.535-39.578 24.496-58.879 4.563-9.828 9.008-19.695 13.857-29.401 8.399-16.814 15.99-34.041 25.027-50.529 6.719-12.258 14.1-24.185 22.565-35.314 10.529-13.841 22.544-26.43 34.96-38.584 9.058-8.866 19.298-16.498 31.302-20.595 10.26-3.502 21.323-4.105 32.156-2.914 10.031 1.103 19.989 3.241 29.047 7.963 17.459 9.1 31.559 21.199 33.759 42.34 0.925 8.892-2.347 17.355-5.351 25.547-7.036 19.192-16.936 37.092-25.824 55.445-10.995 22.704-26.003 42.817-40.383 63.386-9.656 13.812-20.372 26.967-29.002 41.384-11.942 19.952-20.446 41.579-27.361 63.855-5.709 18.39-8.837 37.263-12.582 56.062-2.687 13.487-8.942 25.89-14.087 38.616-7.645 18.906-17.152 36.931-25.48 55.504-3.749 8.36-9.423 15.462-13.935 23.315-6.943 12.083-11.797 25.129-18.413 37.312-7.046 12.972-12.216 26.875-20.047 39.464-2.27 3.65-2.789 8.203-4.924 12.119-8.997 16.496-17.754 33.124-26.519 49.746-11.621 22.039-29.144 38.408-49.2 52.661-6.217 4.418-13.382 6.706-19.611 11.005-3.744 2.584-6.225 5.846-8.104 9.41-5.036 9.555-10.456 19.066-10.899 30.338-0.338 8.597-1.297 17.191-1.216 25.78 0.178 19.041 1.207 38.081 2.313 57.072 1.714 29.451 2.724 58.931 4.417 88.376 1.083 18.841 2.699 37.654 4.276 56.463 0.298 3.554 1.382 7.074 2.397 10.523 0.617 2.095 0.128 2.806-1.962 2.705-1.209-0.059-2.424-6e-3 -3.636-6e-3 -60.462 3e-3 -120.92 3e-3 -181.39 3e-3z"/>
</svg>
