<?xml version="1.0" encoding="UTF-8"?>
<svg viewBox="0 0 310 290" xmlns="http://www.w3.org/2000/svg">
 <g transform="translate(-52.934 -72.452)">
  <path d="m98.915 75.688c-16.45-0.1412-33.339 7.0844-38.283 20.571-7.3482 16.273 4.4438 35.284 24.58 41.143 0.0643 0.0165 0.1576-0.0165 0.2169 0 21.958 7.9367 49.288 11.812 73.086 36.436l8.9183 9.2396-8.0482 8.1937c-23.868 24.582-51.105 28.364-73.086 36.261-0.048 0.0239-0.1611-0.0239-0.217 0-20.08 5.8019-31.727 24.721-24.58 40.968 0.025 0.048-0.025 0.1237 0 0.1743 6.1089 16.442 30.102 23.721 49.377 19.351 0.0641-0.0124 0.152 0.0124 0.2169 0 19.741-3.4414 35.904-19.503 31.323-35.738-2.2602-8.01-5.1525-11.73-7.8306-13.947-1.3392-1.1085-2.5076-1.8009-3.2628-2.4406s-3.9319-2.4204-3.9319-2.4204c1.9658-1.4308 3.114-2.1077 4.8016-3.1582 2.5214-1.6431 6.9263-3.6619 12.616-6.1017 11.28-4.8369 27.893-11.666 46.984-22.663 34.529 19.628 79.394 45.047 104.19 59.099s50.178 6.9647 60.688 0.5227l-132.99-78.058 133.75-78.82c-20.73-12.785-44.386-7.3708-60.144 0.3268-35.033 19.869-70.178 39.644-105.28 59.447-16.006-8.7485-33.181-16.77-48.071-23.186-5.6952-2.4536-10.09-4.4507-12.616-6.1017-1.2633-0.8255-4.4591-2.6149-4.4591-2.6149 2.9215-1.7028 6.0171-4.8406 8.2659-7.2348s4.8955-5.9397 6.4169-12.116c4.0225-16.331-11.59-32.436-31.323-35.913-3.8137-0.8439-7.9348-0.968-11.311-1.2203zm-2.1751 13.772c7.3425-0.3449 14.92 1.6632 19.794 5.5787 7.3015 5.8659 8.6922 13.946 5.8731 20.571s-9.5768 11.523-19.142 11.506h-0.217c-8.7672 0.4062-17.317-3.6433-22.405-9.5883-5.087-5.9449-6.5372-13.338-1.5225-19.7v-0.1745c3.4645-5.2775 10.281-7.8491 17.619-8.1936zm5.6554 148.36c0.6504-0.0124 1.3216-0.0239 1.7401 0 9.5665-5e-4 16.339 4.8824 19.142 11.506s1.4452 14.718-5.873 20.571c-4.879 3.9023-12.666 6.0977-20.012 5.753s-13.951-3.0829-17.402-8.368l-0.217-0.1743c-4.839-6.169-3.4341-13.148 1.3051-19.002s12.867-10.163 21.317-10.286z"/>
 </g>
</svg>
